solid mp_Default_sldprt
   facet normal -8.608561e-001 0.000000e+000 -5.088484e-001
      outer loop
         vertex 5.661044e+001 1.000000e+001 -1.612911e+001
         vertex 5.661044e+001 0.000000e+000 -1.612911e+001
         vertex 5.639063e+001 1.000000e+001 -1.577995e+001
      endloop
   endfacet
   facet normal -8.309940e-001 0.000000e+000 -5.562814e-001
      outer loop
         vertex 5.639063e+001 1.000000e+001 -1.577995e+001
         vertex 5.661044e+001 0.000000e+000 -1.612911e+001
         vertex 5.639063e+001 0.000000e+000 -1.577995e+001
      endloop
   endfacet
   facet normal -7.637663e-001 0.000000e+000 -6.454928e-001
      outer loop
         vertex 5.639063e+001 1.000000e+001 -1.577995e+001
         vertex 5.639063e+001 0.000000e+000 -1.577995e+001
         vertex 5.611558e+001 1.000000e+001 -1.547242e+001
      endloop
   endfacet
   facet normal -7.264008e-001 0.000000e+000 -6.872714e-001
      outer loop
         vertex 5.611558e+001 1.000000e+001 -1.547242e+001
         vertex 5.639063e+001 0.000000e+000 -1.577995e+001
         vertex 5.611558e+001 0.000000e+000 -1.547242e+001
      endloop
   endfacet
   facet normal -6.452162e-001 0.000000e+000 -7.640001e-001
      outer loop
         vertex 5.611558e+001 1.000000e+001 -1.547242e+001
         vertex 5.611558e+001 0.000000e+000 -1.547242e+001
         vertex 5.579303e+001 1.000000e+001 -1.521516e+001
      endloop
   endfacet
   facet normal -6.013971e-001 0.000000e+000 -7.989503e-001
      outer loop
         vertex 5.579303e+001 1.000000e+001 -1.521516e+001
         vertex 5.611558e+001 0.000000e+000 -1.547242e+001
         vertex 5.579303e+001 0.000000e+000 -1.521516e+001
      endloop
   endfacet
   facet normal -5.085366e-001 0.000000e+000 -8.610404e-001
      outer loop
         vertex 5.579303e+001 1.000000e+001 -1.521516e+001
         vertex 5.579303e+001 0.000000e+000 -1.521516e+001
         vertex 5.543204e+001 1.000000e+001 -1.501538e+001
      endloop
   endfacet
   facet normal -4.594952e-001 0.000000e+000 -8.881803e-001
      outer loop
         vertex 5.543204e+001 1.000000e+001 -1.501538e+001
         vertex 5.579303e+001 0.000000e+000 -1.521516e+001
         vertex 5.543204e+001 0.000000e+000 -1.501538e+001
      endloop
   endfacet
   facet normal -3.575681e-001 0.000000e+000 -9.338871e-001
      outer loop
         vertex 5.543204e+001 1.000000e+001 -1.501538e+001
         vertex 5.543204e+001 0.000000e+000 -1.501538e+001
         vertex 5.504274e+001 1.000000e+001 -1.487871e+001
      endloop
   endfacet
   facet normal -3.046824e-001 0.000000e+000 -9.524540e-001
      outer loop
         vertex 5.504274e+001 1.000000e+001 -1.487871e+001
         vertex 5.543204e+001 0.000000e+000 -1.501538e+001
         vertex 5.504274e+001 0.000000e+000 -1.487871e+001
      endloop
   endfacet
   facet normal -1.965527e-001 0.000000e+000 -9.804933e-001
      outer loop
         vertex 5.504274e+001 1.000000e+001 -1.487871e+001
         vertex 5.504274e+001 0.000000e+000 -1.487871e+001
         vertex 5.463609e+001 1.000000e+001 -1.480898e+001
      endloop
   endfacet
   facet normal -1.413086e-001 0.000000e+000 -9.899656e-001
      outer loop
         vertex 5.463609e+001 1.000000e+001 -1.480898e+001
         vertex 5.504274e+001 0.000000e+000 -1.487871e+001
         vertex 5.463609e+001 0.000000e+000 -1.480898e+001
      endloop
   endfacet
   facet normal -3.001444e-002 0.000000e+000 -9.995494e-001
      outer loop
         vertex 5.463609e+001 1.000000e+001 -1.480898e+001
         vertex 5.463609e+001 0.000000e+000 -1.480898e+001
         vertex 5.422351e+001 1.000000e+001 -1.480816e+001
      endloop
   endfacet
   facet normal 2.603570e-002 0.000000e+000 -9.996610e-001
      outer loop
         vertex 5.422351e+001 1.000000e+001 -1.480816e+001
         vertex 5.463609e+001 0.000000e+000 -1.480898e+001
         vertex 5.422351e+001 0.000000e+000 -1.480816e+001
      endloop
   endfacet
   facet normal 1.373671e-001 0.000000e+000 -9.905202e-001
      outer loop
         vertex 5.422351e+001 1.000000e+001 -1.480816e+001
         vertex 5.422351e+001 0.000000e+000 -1.480816e+001
         vertex 5.381658e+001 1.000000e+001 -1.487627e+001
      endloop
   endfacet
   facet normal 1.926484e-001 0.000000e+000 -9.812678e-001
      outer loop
         vertex 5.381658e+001 1.000000e+001 -1.487627e+001
         vertex 5.422351e+001 0.000000e+000 -1.480816e+001
         vertex 5.381658e+001 0.000000e+000 -1.487627e+001
      endloop
   endfacet
   facet normal 3.008890e-001 0.000000e+000 -9.536592e-001
      outer loop
         vertex 5.381658e+001 1.000000e+001 -1.487627e+001
         vertex 5.381658e+001 0.000000e+000 -1.487627e+001
         vertex 5.342675e+001 1.000000e+001 -1.501139e+001
      endloop
   endfacet
   facet normal 3.538482e-001 0.000000e+000 -9.353029e-001
      outer loop
         vertex 5.342675e+001 1.000000e+001 -1.501139e+001
         vertex 5.381658e+001 0.000000e+000 -1.487627e+001
         vertex 5.342675e+001 0.000000e+000 -1.501139e+001
      endloop
   endfacet
   facet normal 4.559564e-001 0.000000e+000 -8.900021e-001
      outer loop
         vertex 5.342675e+001 1.000000e+001 -1.501139e+001
         vertex 5.342675e+001 0.000000e+000 -1.501139e+001
         vertex 5.306496e+001 1.000000e+001 -1.520973e+001
      endloop
   endfacet
   facet normal 5.051054e-001 0.000000e+000 -8.630577e-001
      outer loop
         vertex 5.306496e+001 1.000000e+001 -1.520973e+001
         vertex 5.342675e+001 0.000000e+000 -1.501139e+001
         vertex 5.306496e+001 0.000000e+000 -1.520973e+001
      endloop
   endfacet
   facet normal 5.982122e-001 0.000000e+000 -8.013377e-001
      outer loop
         vertex 5.306496e+001 1.000000e+001 -1.520973e+001
         vertex 5.306496e+001 0.000000e+000 -1.520973e+001
         vertex 5.274139e+001 1.000000e+001 -1.546571e+001
      endloop
   endfacet
   facet normal 6.421701e-001 0.000000e+000 -7.665622e-001
      outer loop
         vertex 5.274139e+001 1.000000e+001 -1.546571e+001
         vertex 5.306496e+001 0.000000e+000 -1.520973e+001
         vertex 5.274139e+001 0.000000e+000 -1.546571e+001
      endloop
   endfacet
   facet normal 7.236595e-001 0.000000e+000 -6.901572e-001
      outer loop
         vertex 5.274139e+001 1.000000e+001 -1.546571e+001
         vertex 5.274139e+001 0.000000e+000 -1.546571e+001
         vertex 5.246512e+001 1.000000e+001 -1.577214e+001
      endloop
   endfacet
   facet normal 7.611910e-001 0.000000e+000 -6.485277e-001
      outer loop
         vertex 5.246512e+001 1.000000e+001 -1.577214e+001
         vertex 5.274139e+001 0.000000e+000 -1.546571e+001
         vertex 5.246512e+001 0.000000e+000 -1.577214e+001
      endloop
   endfacet
   facet normal 8.287733e-001 0.000000e+000 -5.595846e-001
      outer loop
         vertex 5.246512e+001 1.000000e+001 -1.577214e+001
         vertex 5.246512e+001 0.000000e+000 -1.577214e+001
         vertex 5.224392e+001 1.000000e+001 -1.612042e+001
      endloop
   endfacet
   facet normal 8.588240e-001 0.000000e+000 -5.122709e-001
      outer loop
         vertex 5.224392e+001 1.000000e+001 -1.612042e+001
         vertex 5.246512e+001 0.000000e+000 -1.577214e+001
         vertex 5.224392e+001 0.000000e+000 -1.612042e+001
      endloop
   endfacet
   facet normal 9.106001e-001 0.000000e+000 -4.132886e-001
      outer loop
         vertex 5.224392e+001 1.000000e+001 -1.612042e+001
         vertex 5.224392e+001 0.000000e+000 -1.612042e+001
         vertex 5.208400e+001 1.000000e+001 -1.650075e+001
      endloop
   endfacet
   facet normal 9.323255e-001 0.000000e+000 -3.616201e-001
      outer loop
         vertex 5.208400e+001 1.000000e+001 -1.650075e+001
         vertex 5.224392e+001 0.000000e+000 -1.612042e+001
         vertex 5.208400e+001 0.000000e+000 -1.650075e+001
      endloop
   endfacet
   facet normal -8.883888e-001 0.000000e+000 -4.590919e-001
      outer loop
         vertex 5.208400e+001 1.000000e+001 -1.650075e+001
         vertex 5.208400e+001 0.000000e+000 -1.650075e+001
         vertex 5.007919e+001 1.000000e+001 -1.277874e+001
      endloop
   endfacet
   facet normal -8.721673e-001 0.000000e+000 -4.892076e-001
      outer loop
         vertex 5.007919e+001 1.000000e+001 -1.277874e+001
         vertex 5.208400e+001 0.000000e+000 -1.650075e+001
         vertex 5.007919e+001 0.000000e+000 -1.277874e+001
      endloop
   endfacet
   facet normal -8.367270e-001 0.000000e+000 -5.476202e-001
      outer loop
         vertex 5.007919e+001 1.000000e+001 -1.277874e+001
         vertex 5.007919e+001 0.000000e+000 -1.277874e+001
         vertex 4.770391e+001 1.000000e+001 -9.281515e+000
      endloop
   endfacet
   facet normal -8.175080e-001 0.000000e+000 -5.759172e-001
      outer loop
         vertex 4.770391e+001 1.000000e+001 -9.281515e+000
         vertex 5.007919e+001 0.000000e+000 -1.277874e+001
         vertex 4.770391e+001 0.000000e+000 -9.281515e+000
      endloop
   endfacet
   facet normal -7.762744e-001 0.000000e+000 -6.303952e-001
      outer loop
         vertex 4.770391e+001 1.000000e+001 -9.281515e+000
         vertex 4.770391e+001 0.000000e+000 -9.281515e+000
         vertex 4.498312e+001 1.000000e+001 -6.045802e+000
      endloop
   endfacet
   facet normal -7.542597e-001 0.000000e+000 -6.565762e-001
      outer loop
         vertex 4.498312e+001 1.000000e+001 -6.045802e+000
         vertex 4.770391e+001 0.000000e+000 -9.281515e+000
         vertex 4.498312e+001 0.000000e+000 -6.045802e+000
      endloop
   endfacet
   facet normal -7.076660e-001 0.000000e+000 -7.065470e-001
      outer loop
         vertex 4.498312e+001 1.000000e+001 -6.045802e+000
         vertex 4.498312e+001 0.000000e+000 -6.045802e+000
         vertex 4.194539e+001 1.000000e+001 -3.105600e+000
      endloop
   endfacet
   facet normal -6.830871e-001 0.000000e+000 -7.303370e-001
      outer loop
         vertex 4.194539e+001 1.000000e+001 -3.105600e+000
         vertex 4.498312e+001 0.000000e+000 -6.045802e+000
         vertex 4.194539e+001 0.000000e+000 -3.105600e+000
      endloop
   endfacet
   facet normal -6.316229e-001 0.000000e+000 -7.752758e-001
      outer loop
         vertex 4.194539e+001 1.000000e+001 -3.105600e+000
         vertex 4.194539e+001 0.000000e+000 -3.105600e+000
         vertex 3.862265e+001 1.000000e+001 -4.918008e-001
      endloop
   endfacet
   facet normal -6.047378e-001 0.000000e+000 -7.964247e-001
      outer loop
         vertex 3.862265e+001 1.000000e+001 -4.918008e-001
         vertex 4.194539e+001 0.000000e+000 -3.105600e+000
         vertex 3.862265e+001 0.000000e+000 -4.918008e-001
      endloop
   endfacet
   facet normal -5.489438e-001 0.000000e+000 -8.358592e-001
      outer loop
         vertex 3.862265e+001 1.000000e+001 -4.918008e-001
         vertex 3.862265e+001 0.000000e+000 -4.918008e-001
         vertex 3.504980e+001 1.000000e+001 1.768135e+000
      endloop
   endfacet
   facet normal -5.200349e-001 0.000000e+000 -8.541450e-001
      outer loop
         vertex 3.504980e+001 1.000000e+001 1.768135e+000
         vertex 3.862265e+001 0.000000e+000 -4.918008e-001
         vertex 3.504980e+001 0.000000e+000 1.768135e+000
      endloop
   endfacet
   facet normal -4.604973e-001 0.000000e+000 -8.876612e-001
      outer loop
         vertex 3.504980e+001 1.000000e+001 1.768135e+000
         vertex 3.504980e+001 0.000000e+000 1.768135e+000
         vertex 3.126438e+001 1.000000e+001 3.650463e+000
      endloop
   endfacet
   facet normal -4.298685e-001 0.000000e+000 -9.028915e-001
      outer loop
         vertex 3.126438e+001 1.000000e+001 3.650463e+000
         vertex 3.504980e+001 0.000000e+000 1.768135e+000
         vertex 3.126438e+001 0.000000e+000 3.650463e+000
      endloop
   endfacet
   facet normal -3.672127e-001 0.000000e+000 -9.301370e-001
      outer loop
         vertex 3.126438e+001 1.000000e+001 3.650463e+000
         vertex 3.126438e+001 0.000000e+000 3.650463e+000
         vertex 2.730616e+001 1.000000e+001 5.135409e+000
      endloop
   endfacet
   facet normal -3.351857e-001 0.000000e+000 -9.421520e-001
      outer loop
         vertex 2.730616e+001 1.000000e+001 5.135409e+000
         vertex 3.126438e+001 0.000000e+000 3.650463e+000
         vertex 2.730616e+001 0.000000e+000 5.135409e+000
      endloop
   endfacet
   facet normal -2.700702e-001 0.000000e+000 -9.628406e-001
      outer loop
         vertex 2.730616e+001 1.000000e+001 5.135409e+000
         vertex 2.730616e+001 0.000000e+000 5.135409e+000
         vertex 2.321672e+001 1.000000e+001 6.207371e+000
      endloop
   endfacet
   facet normal -2.369815e-001 0.000000e+000 -9.715142e-001
      outer loop
         vertex 2.321672e+001 1.000000e+001 6.207371e+000
         vertex 2.730616e+001 0.000000e+000 5.135409e+000
         vertex 2.321672e+001 0.000000e+000 6.207371e+000
      endloop
   endfacet
   facet normal -1.700902e-001 0.000000e+000 -9.854285e-001
      outer loop
         vertex 2.321672e+001 1.000000e+001 6.207371e+000
         vertex 2.321672e+001 0.000000e+000 6.207371e+000
         vertex 1.903904e+001 1.000000e+001 6.855086e+000
      endloop
   endfacet
   facet normal -1.362875e-001 0.000000e+000 -9.906693e-001
      outer loop
         vertex 1.903904e+001 1.000000e+001 6.855086e+000
         vertex 2.321672e+001 0.000000e+000 6.207371e+000
         vertex 1.903904e+001 0.000000e+000 6.855086e+000
      endloop
   endfacet
   facet normal -6.832319e-002 0.000000e+000 -9.976632e-001
      outer loop
         vertex 1.903904e+001 1.000000e+001 6.855086e+000
         vertex 1.903904e+001 0.000000e+000 6.855086e+000
         vertex 1.481700e+001 1.000000e+001 7.071750e+000
      endloop
   endfacet
   facet normal -3.416160e-002 0.000000e+000 -9.994164e-001
      outer loop
         vertex 1.481700e+001 1.000000e+001 7.071750e+000
         vertex 1.903904e+001 0.000000e+000 6.855086e+000
         vertex 1.481700e+001 0.000000e+000 7.071750e+000
      endloop
   endfacet
   facet normal 0.000000e+000 0.000000e+000 -1.000000e+000
      outer loop
         vertex -5.343100e+001 1.000000e+001 7.071750e+000
         vertex 1.481700e+001 1.000000e+001 7.071750e+000
         vertex -5.343100e+001 0.000000e+000 7.071750e+000
      endloop
   endfacet
   facet normal 0.000000e+000 0.000000e+000 -1.000000e+000
      outer loop
         vertex -5.343100e+001 0.000000e+000 7.071750e+000
         vertex 1.481700e+001 1.000000e+001 7.071750e+000
         vertex 1.481700e+001 0.000000e+000 7.071750e+000
      endloop
   endfacet
   facet normal -1.000000e+000 0.000000e+000 0.000000e+000
      outer loop
         vertex -5.343100e+001 1.000000e+001 1.156175e+001
         vertex -5.343100e+001 1.000000e+001 7.071750e+000
         vertex -5.343100e+001 0.000000e+000 1.156175e+001
      endloop
   endfacet
   facet normal -1.000000e+000 0.000000e+000 0.000000e+000
      outer loop
         vertex -5.343100e+001 0.000000e+000 1.156175e+001
         vertex -5.343100e+001 1.000000e+001 7.071750e+000
         vertex -5.343100e+001 0.000000e+000 7.071750e+000
      endloop
   endfacet
   facet normal 0.000000e+000 0.000000e+000 1.000000e+000
      outer loop
         vertex 1.481700e+001 1.000000e+001 1.156175e+001
         vertex -5.343100e+001 1.000000e+001 1.156175e+001
         vertex 1.481700e+001 0.000000e+000 1.156175e+001
      endloop
   endfacet
   facet normal 0.000000e+000 0.000000e+000 1.000000e+000
      outer loop
         vertex 1.481700e+001 0.000000e+000 1.156175e+001
         vertex -5.343100e+001 1.000000e+001 1.156175e+001
         vertex -5.343100e+001 0.000000e+000 1.156175e+001
      endloop
   endfacet
   facet normal 3.249156e-002 0.000000e+000 9.994720e-001
      outer loop
         vertex 1.481700e+001 1.000000e+001 1.156175e+001
         vertex 1.481700e+001 0.000000e+000 1.156175e+001
         vertex 1.923617e+001 0.000000e+000 1.134609e+001
      endloop
   endfacet
   facet normal 6.498313e-002 0.000000e+000 9.978864e-001
      outer loop
         vertex 1.481700e+001 1.000000e+001 1.156175e+001
         vertex 1.923617e+001 0.000000e+000 1.134609e+001
         vertex 1.923617e+001 1.000000e+001 1.134609e+001
      endloop
   endfacet
   facet normal 1.296575e-001 0.000000e+000 9.915588e-001
      outer loop
         vertex 1.923617e+001 1.000000e+001 1.134609e+001
         vertex 1.923617e+001 0.000000e+000 1.134609e+001
         vertex 2.361335e+001 0.000000e+000 1.070115e+001
      endloop
   endfacet
   facet normal 1.618402e-001 0.000000e+000 9.868169e-001
      outer loop
         vertex 1.923617e+001 1.000000e+001 1.134609e+001
         vertex 2.361335e+001 0.000000e+000 1.070115e+001
         vertex 2.361335e+001 1.000000e+001 1.070115e+001
      endloop
   endfacet
   facet normal 2.255911e-001 0.000000e+000 9.742221e-001
      outer loop
         vertex 2.361335e+001 1.000000e+001 1.070115e+001
         vertex 2.361335e+001 0.000000e+000 1.070115e+001
         vertex 2.790692e+001 0.000000e+000 9.633056e+000
      endloop
   endfacet
   facet normal 2.571592e-001 0.000000e+000 9.663690e-001
      outer loop
         vertex 2.361335e+001 1.000000e+001 1.070115e+001
         vertex 2.790692e+001 0.000000e+000 9.633056e+000
         vertex 2.790692e+001 1.000000e+001 9.633056e+000
      endloop
   endfacet
   facet normal 3.193808e-001 0.000000e+000 9.476265e-001
      outer loop
         vertex 2.790692e+001 1.000000e+001 9.633056e+000
         vertex 2.790692e+001 0.000000e+000 9.633056e+000
         vertex 3.207610e+001 0.000000e+000 8.151969e+000
      endloop
   endfacet
   facet normal 3.500342e-001 0.000000e+000 9.367369e-001
      outer loop
         vertex 2.790692e+001 1.000000e+001 9.633056e+000
         vertex 3.207610e+001 0.000000e+000 8.151969e+000
         vertex 3.207610e+001 1.000000e+001 8.151969e+000
      endloop
   endfacet
   facet normal 4.101351e-001 0.000000e+000 9.120248e-001
      outer loop
         vertex 3.207610e+001 1.000000e+001 8.151969e+000
         vertex 3.207610e+001 0.000000e+000 8.151969e+000
         vertex 3.608123e+001 0.000000e+000 6.271962e+000
      endloop
   endfacet
   facet normal 4.395826e-001 0.000000e+000 8.982022e-001
      outer loop
         vertex 3.207610e+001 1.000000e+001 8.151969e+000
         vertex 3.608123e+001 0.000000e+000 6.271962e+000
         vertex 3.608123e+001 1.000000e+001 6.271962e+000
      endloop
   endfacet
   facet normal 4.969916e-001 0.000000e+000 8.677554e-001
      outer loop
         vertex 3.608123e+001 1.000000e+001 6.271962e+000
         vertex 3.608123e+001 0.000000e+000 6.271962e+000
         vertex 3.988429e+001 0.000000e+000 4.010900e+000
      endloop
   endfacet
   facet normal 5.249531e-001 0.000000e+000 8.511311e-001
      outer loop
         vertex 3.608123e+001 1.000000e+001 6.271962e+000
         vertex 3.988429e+001 0.000000e+000 4.010900e+000
         vertex 3.988429e+001 1.000000e+001 4.010900e+000
      endloop
   endfacet
   facet normal 5.791247e-001 0.000000e+000 8.152390e-001
      outer loop
         vertex 3.988429e+001 1.000000e+001 4.010900e+000
         vertex 3.988429e+001 0.000000e+000 4.010900e+000
         vertex 4.344910e+001 0.000000e+000 1.390273e+000
      endloop
   endfacet
   facet normal 6.053347e-001 0.000000e+000 7.959710e-001
      outer loop
         vertex 3.988429e+001 1.000000e+001 4.010900e+000
         vertex 4.344910e+001 0.000000e+000 1.390273e+000
         vertex 4.344910e+001 1.000000e+001 1.390273e+000
      endloop
   endfacet
   facet normal 6.557540e-001 0.000000e+000 7.549746e-001
      outer loop
         vertex 4.344910e+001 1.000000e+001 1.390273e+000
         vertex 4.344910e+001 0.000000e+000 1.390273e+000
         vertex 4.674181e+001 0.000000e+000 -1.565014e+000
      endloop
   endfacet
   facet normal 6.799632e-001 0.000000e+000 7.332462e-001
      outer loop
         vertex 4.344910e+001 1.000000e+001 1.390273e+000
         vertex 4.674181e+001 0.000000e+000 -1.565014e+000
         vertex 4.674181e+001 1.000000e+001 -1.565014e+000
      endloop
   endfacet
   facet normal 7.261510e-001 0.000000e+000 6.875352e-001
      outer loop
         vertex 4.674181e+001 1.000000e+001 -1.565014e+000
         vertex 4.674181e+001 0.000000e+000 -1.565014e+000
         vertex 4.973110e+001 0.000000e+000 -4.826873e+000
      endloop
   endfacet
   facet normal 7.481296e-001 0.000000e+000 6.635526e-001
      outer loop
         vertex 4.674181e+001 1.000000e+001 -1.565014e+000
         vertex 4.973110e+001 0.000000e+000 -4.826873e+000
         vertex 4.973110e+001 1.000000e+001 -4.826873e+000
      endloop
   endfacet
   facet normal 7.896469e-001 0.000000e+000 6.135615e-001
      outer loop
         vertex 4.973110e+001 1.000000e+001 -4.826873e+000
         vertex 4.973110e+001 0.000000e+000 -4.826873e+000
         vertex 5.238858e+001 0.000000e+000 -8.364304e+000
      endloop
   endfacet
   facet normal 8.091857e-001 0.000000e+000 5.875528e-001
      outer loop
         vertex 4.973110e+001 1.000000e+001 -4.826873e+000
         vertex 5.238858e+001 0.000000e+000 -8.364304e+000
         vertex 5.238858e+001 1.000000e+001 -8.364304e+000
      endloop
   endfacet
   facet normal 8.456381e-001 0.000000e+000 5.337566e-001
      outer loop
         vertex 5.238858e+001 1.000000e+001 -8.364304e+000
         vertex 5.238858e+001 0.000000e+000 -8.364304e+000
         vertex 5.468898e+001 0.000000e+000 -1.214369e+001
      endloop
   endfacet
   facet normal 8.625516e-001 0.000000e+000 5.059690e-001
      outer loop
         vertex 5.238858e+001 1.000000e+001 -8.364304e+000
         vertex 5.468898e+001 0.000000e+000 -1.214369e+001
         vertex 5.468898e+001 1.000000e+001 -1.214369e+001
      endloop
   endfacet
   facet normal 8.935925e-001 0.000000e+000 4.488791e-001
      outer loop
         vertex 5.468898e+001 1.000000e+001 -1.214369e+001
         vertex 5.468898e+001 0.000000e+000 -1.214369e+001
         vertex 5.661044e+001 0.000000e+000 -1.612911e+001
      endloop
   endfacet
   facet normal 9.077199e-001 0.000000e+000 4.195766e-001
      outer loop
         vertex 5.468898e+001 1.000000e+001 -1.214369e+001
         vertex 5.661044e+001 0.000000e+000 -1.612911e+001
         vertex 5.661044e+001 1.000000e+001 -1.612911e+001
      endloop
   endfacet
   facet normal 0.000000e+000 1.000000e+000 0.000000e+000
      outer loop
         vertex 5.224392e+001 1.000000e+001 -1.612042e+001
         vertex 5.208400e+001 1.000000e+001 -1.650075e+001
         vertex 5.007919e+001 1.000000e+001 -1.277874e+001
      endloop
   endfacet
   facet normal 0.000000e+000 1.000000e+000 0.000000e+000
      outer loop
         vertex 5.224392e+001 1.000000e+001 -1.612042e+001
         vertex 5.007919e+001 1.000000e+001 -1.277874e+001
         vertex 5.246512e+001 1.000000e+001 -1.577214e+001
      endloop
   endfacet
   facet normal 0.000000e+000 1.000000e+000 0.000000e+000
      outer loop
         vertex 5.468898e+001 1.000000e+001 -1.214369e+001
         vertex 5.579303e+001 1.000000e+001 -1.521516e+001
         vertex 5.543204e+001 1.000000e+001 -1.501538e+001
      endloop
   endfacet
   facet normal 0.000000e+000 1.000000e+000 0.000000e+000
      outer loop
         vertex 5.543204e+001 1.000000e+001 -1.501538e+001
         vertex 5.504274e+001 1.000000e+001 -1.487871e+001
         vertex 5.468898e+001 1.000000e+001 -1.214369e+001
      endloop
   endfacet
   facet normal 0.000000e+000 1.000000e+000 0.000000e+000
      outer loop
         vertex 5.468898e+001 1.000000e+001 -1.214369e+001
         vertex 5.504274e+001 1.000000e+001 -1.487871e+001
         vertex 5.463609e+001 1.000000e+001 -1.480898e+001
      endloop
   endfacet
   facet normal 0.000000e+000 1.000000e+000 0.000000e+000
      outer loop
         vertex 5.468898e+001 1.000000e+001 -1.214369e+001
         vertex 5.463609e+001 1.000000e+001 -1.480898e+001
         vertex 5.238858e+001 1.000000e+001 -8.364304e+000
      endloop
   endfacet
   facet normal 0.000000e+000 1.000000e+000 0.000000e+000
      outer loop
         vertex 5.661044e+001 1.000000e+001 -1.612911e+001
         vertex 5.639063e+001 1.000000e+001 -1.577995e+001
         vertex 5.468898e+001 1.000000e+001 -1.214369e+001
      endloop
   endfacet
   facet normal 0.000000e+000 1.000000e+000 0.000000e+000
      outer loop
         vertex 5.468898e+001 1.000000e+001 -1.214369e+001
         vertex 5.639063e+001 1.000000e+001 -1.577995e+001
         vertex 5.611558e+001 1.000000e+001 -1.547242e+001
      endloop
   endfacet
   facet normal 0.000000e+000 1.000000e+000 0.000000e+000
      outer loop
         vertex 5.468898e+001 1.000000e+001 -1.214369e+001
         vertex 5.611558e+001 1.000000e+001 -1.547242e+001
         vertex 5.579303e+001 1.000000e+001 -1.521516e+001
      endloop
   endfacet
   facet normal 0.000000e+000 1.000000e+000 0.000000e+000
      outer loop
         vertex 5.463609e+001 1.000000e+001 -1.480898e+001
         vertex 5.422351e+001 1.000000e+001 -1.480816e+001
         vertex 5.238858e+001 1.000000e+001 -8.364304e+000
      endloop
   endfacet
   facet normal 0.000000e+000 1.000000e+000 0.000000e+000
      outer loop
         vertex 5.238858e+001 1.000000e+001 -8.364304e+000
         vertex 5.422351e+001 1.000000e+001 -1.480816e+001
         vertex 5.381658e+001 1.000000e+001 -1.487627e+001
      endloop
   endfacet
   facet normal 0.000000e+000 1.000000e+000 0.000000e+000
      outer loop
         vertex 5.238858e+001 1.000000e+001 -8.364304e+000
         vertex 5.381658e+001 1.000000e+001 -1.487627e+001
         vertex 4.973110e+001 1.000000e+001 -4.826873e+000
      endloop
   endfacet
   facet normal 0.000000e+000 1.000000e+000 0.000000e+000
      outer loop
         vertex 4.973110e+001 1.000000e+001 -4.826873e+000
         vertex 5.381658e+001 1.000000e+001 -1.487627e+001
         vertex 5.342675e+001 1.000000e+001 -1.501139e+001
      endloop
   endfacet
   facet normal 0.000000e+000 1.000000e+000 0.000000e+000
      outer loop
         vertex 4.973110e+001 1.000000e+001 -4.826873e+000
         vertex 5.342675e+001 1.000000e+001 -1.501139e+001
         vertex 4.674181e+001 1.000000e+001 -1.565014e+000
      endloop
   endfacet
   facet normal 0.000000e+000 1.000000e+000 0.000000e+000
      outer loop
         vertex 4.674181e+001 1.000000e+001 -1.565014e+000
         vertex 5.342675e+001 1.000000e+001 -1.501139e+001
         vertex 4.344910e+001 1.000000e+001 1.390273e+000
      endloop
   endfacet
   facet normal 0.000000e+000 1.000000e+000 0.000000e+000
      outer loop
         vertex 4.344910e+001 1.000000e+001 1.390273e+000
         vertex 5.342675e+001 1.000000e+001 -1.501139e+001
         vertex 5.306496e+001 1.000000e+001 -1.520973e+001
      endloop
   endfacet
   facet normal 0.000000e+000 1.000000e+000 0.000000e+000
      outer loop
         vertex 4.344910e+001 1.000000e+001 1.390273e+000
         vertex 5.306496e+001 1.000000e+001 -1.520973e+001
         vertex 3.988429e+001 1.000000e+001 4.010900e+000
      endloop
   endfacet
   facet normal 0.000000e+000 1.000000e+000 0.000000e+000
      outer loop
         vertex 4.498312e+001 1.000000e+001 -6.045802e+000
         vertex 3.988429e+001 1.000000e+001 4.010900e+000
         vertex 4.770391e+001 1.000000e+001 -9.281515e+000
      endloop
   endfacet
   facet normal 0.000000e+000 1.000000e+000 0.000000e+000
      outer loop
         vertex 4.770391e+001 1.000000e+001 -9.281515e+000
         vertex 3.988429e+001 1.000000e+001 4.010900e+000
         vertex 5.306496e+001 1.000000e+001 -1.520973e+001
      endloop
   endfacet
   facet normal 0.000000e+000 1.000000e+000 0.000000e+000
      outer loop
         vertex 4.770391e+001 1.000000e+001 -9.281515e+000
         vertex 5.306496e+001 1.000000e+001 -1.520973e+001
         vertex 5.007919e+001 1.000000e+001 -1.277874e+001
      endloop
   endfacet
   facet normal 0.000000e+000 1.000000e+000 0.000000e+000
      outer loop
         vertex 5.007919e+001 1.000000e+001 -1.277874e+001
         vertex 5.306496e+001 1.000000e+001 -1.520973e+001
         vertex 5.274139e+001 1.000000e+001 -1.546571e+001
      endloop
   endfacet
   facet normal 0.000000e+000 1.000000e+000 0.000000e+000
      outer loop
         vertex 5.007919e+001 1.000000e+001 -1.277874e+001
         vertex 5.274139e+001 1.000000e+001 -1.546571e+001
         vertex 5.246512e+001 1.000000e+001 -1.577214e+001
      endloop
   endfacet
   facet normal 0.000000e+000 1.000000e+000 0.000000e+000
      outer loop
         vertex -5.343100e+001 1.000000e+001 7.071750e+000
         vertex -5.343100e+001 1.000000e+001 1.156175e+001
         vertex 1.481700e+001 1.000000e+001 7.071750e+000
      endloop
   endfacet
   facet normal 0.000000e+000 1.000000e+000 0.000000e+000
      outer loop
         vertex 1.481700e+001 1.000000e+001 7.071750e+000
         vertex -5.343100e+001 1.000000e+001 1.156175e+001
         vertex 1.481700e+001 1.000000e+001 1.156175e+001
      endloop
   endfacet
   facet normal 0.000000e+000 1.000000e+000 0.000000e+000
      outer loop
         vertex 1.481700e+001 1.000000e+001 7.071750e+000
         vertex 1.481700e+001 1.000000e+001 1.156175e+001
         vertex 1.903904e+001 1.000000e+001 6.855086e+000
      endloop
   endfacet
   facet normal 0.000000e+000 1.000000e+000 0.000000e+000
      outer loop
         vertex 1.903904e+001 1.000000e+001 6.855086e+000
         vertex 1.481700e+001 1.000000e+001 1.156175e+001
         vertex 1.923617e+001 1.000000e+001 1.134609e+001
      endloop
   endfacet
   facet normal 0.000000e+000 1.000000e+000 0.000000e+000
      outer loop
         vertex 1.903904e+001 1.000000e+001 6.855086e+000
         vertex 1.923617e+001 1.000000e+001 1.134609e+001
         vertex 2.321672e+001 1.000000e+001 6.207371e+000
      endloop
   endfacet
   facet normal 0.000000e+000 1.000000e+000 0.000000e+000
      outer loop
         vertex 2.321672e+001 1.000000e+001 6.207371e+000
         vertex 1.923617e+001 1.000000e+001 1.134609e+001
         vertex 2.361335e+001 1.000000e+001 1.070115e+001
      endloop
   endfacet
   facet normal 0.000000e+000 1.000000e+000 0.000000e+000
      outer loop
         vertex 2.321672e+001 1.000000e+001 6.207371e+000
         vertex 2.361335e+001 1.000000e+001 1.070115e+001
         vertex 2.730616e+001 1.000000e+001 5.135409e+000
      endloop
   endfacet
   facet normal 0.000000e+000 1.000000e+000 0.000000e+000
      outer loop
         vertex 2.730616e+001 1.000000e+001 5.135409e+000
         vertex 2.361335e+001 1.000000e+001 1.070115e+001
         vertex 2.790692e+001 1.000000e+001 9.633056e+000
      endloop
   endfacet
   facet normal 0.000000e+000 1.000000e+000 0.000000e+000
      outer loop
         vertex 2.730616e+001 1.000000e+001 5.135409e+000
         vertex 2.790692e+001 1.000000e+001 9.633056e+000
         vertex 3.126438e+001 1.000000e+001 3.650463e+000
      endloop
   endfacet
   facet normal 0.000000e+000 1.000000e+000 0.000000e+000
      outer loop
         vertex 3.126438e+001 1.000000e+001 3.650463e+000
         vertex 2.790692e+001 1.000000e+001 9.633056e+000
         vertex 3.207610e+001 1.000000e+001 8.151969e+000
      endloop
   endfacet
   facet normal 0.000000e+000 1.000000e+000 0.000000e+000
      outer loop
         vertex 3.126438e+001 1.000000e+001 3.650463e+000
         vertex 3.207610e+001 1.000000e+001 8.151969e+000
         vertex 3.504980e+001 1.000000e+001 1.768135e+000
      endloop
   endfacet
   facet normal 0.000000e+000 1.000000e+000 0.000000e+000
      outer loop
         vertex 3.504980e+001 1.000000e+001 1.768135e+000
         vertex 3.207610e+001 1.000000e+001 8.151969e+000
         vertex 3.608123e+001 1.000000e+001 6.271962e+000
      endloop
   endfacet
   facet normal 0.000000e+000 1.000000e+000 0.000000e+000
      outer loop
         vertex 3.504980e+001 1.000000e+001 1.768135e+000
         vertex 3.608123e+001 1.000000e+001 6.271962e+000
         vertex 3.862265e+001 1.000000e+001 -4.918008e-001
      endloop
   endfacet
   facet normal 0.000000e+000 1.000000e+000 0.000000e+000
      outer loop
         vertex 3.862265e+001 1.000000e+001 -4.918008e-001
         vertex 3.608123e+001 1.000000e+001 6.271962e+000
         vertex 3.988429e+001 1.000000e+001 4.010900e+000
      endloop
   endfacet
   facet normal 0.000000e+000 1.000000e+000 0.000000e+000
      outer loop
         vertex 3.862265e+001 1.000000e+001 -4.918008e-001
         vertex 3.988429e+001 1.000000e+001 4.010900e+000
         vertex 4.194539e+001 1.000000e+001 -3.105600e+000
      endloop
   endfacet
   facet normal 0.000000e+000 1.000000e+000 0.000000e+000
      outer loop
         vertex 4.194539e+001 1.000000e+001 -3.105600e+000
         vertex 3.988429e+001 1.000000e+001 4.010900e+000
         vertex 4.498312e+001 1.000000e+001 -6.045802e+000
      endloop
   endfacet
   facet normal 0.000000e+000 -1.000000e+000 0.000000e+000
      outer loop
         vertex 5.208400e+001 0.000000e+000 -1.650075e+001
         vertex 5.224392e+001 0.000000e+000 -1.612042e+001
         vertex 5.007919e+001 0.000000e+000 -1.277874e+001
      endloop
   endfacet
   facet normal 0.000000e+000 -1.000000e+000 0.000000e+000
      outer loop
         vertex 5.007919e+001 0.000000e+000 -1.277874e+001
         vertex 5.224392e+001 0.000000e+000 -1.612042e+001
         vertex 5.246512e+001 0.000000e+000 -1.577214e+001
      endloop
   endfacet
   facet normal 0.000000e+000 -1.000000e+000 0.000000e+000
      outer loop
         vertex 5.007919e+001 0.000000e+000 -1.277874e+001
         vertex 5.246512e+001 0.000000e+000 -1.577214e+001
         vertex 4.770391e+001 0.000000e+000 -9.281515e+000
      endloop
   endfacet
   facet normal 0.000000e+000 -1.000000e+000 0.000000e+000
      outer loop
         vertex 4.770391e+001 0.000000e+000 -9.281515e+000
         vertex 5.246512e+001 0.000000e+000 -1.577214e+001
         vertex 5.274139e+001 0.000000e+000 -1.546571e+001
      endloop
   endfacet
   facet normal 0.000000e+000 -1.000000e+000 0.000000e+000
      outer loop
         vertex 5.342675e+001 0.000000e+000 -1.501139e+001
         vertex 5.381658e+001 0.000000e+000 -1.487627e+001
         vertex 5.238858e+001 0.000000e+000 -8.364304e+000
      endloop
   endfacet
   facet normal 0.000000e+000 -1.000000e+000 0.000000e+000
      outer loop
         vertex 5.238858e+001 0.000000e+000 -8.364304e+000
         vertex 5.381658e+001 0.000000e+000 -1.487627e+001
         vertex 5.422351e+001 0.000000e+000 -1.480816e+001
      endloop
   endfacet
   facet normal 0.000000e+000 -1.000000e+000 0.000000e+000
      outer loop
         vertex 5.238858e+001 0.000000e+000 -8.364304e+000
         vertex 5.422351e+001 0.000000e+000 -1.480816e+001
         vertex 5.468898e+001 0.000000e+000 -1.214369e+001
      endloop
   endfacet
   facet normal 0.000000e+000 -1.000000e+000 0.000000e+000
      outer loop
         vertex 5.468898e+001 0.000000e+000 -1.214369e+001
         vertex 5.422351e+001 0.000000e+000 -1.480816e+001
         vertex 5.463609e+001 0.000000e+000 -1.480898e+001
      endloop
   endfacet
   facet normal 0.000000e+000 -1.000000e+000 0.000000e+000
      outer loop
         vertex 5.463609e+001 0.000000e+000 -1.480898e+001
         vertex 5.504274e+001 0.000000e+000 -1.487871e+001
         vertex 5.468898e+001 0.000000e+000 -1.214369e+001
      endloop
   endfacet
   facet normal 0.000000e+000 -1.000000e+000 0.000000e+000
      outer loop
         vertex 5.468898e+001 0.000000e+000 -1.214369e+001
         vertex 5.504274e+001 0.000000e+000 -1.487871e+001
         vertex 5.543204e+001 0.000000e+000 -1.501538e+001
      endloop
   endfacet
   facet normal 0.000000e+000 -1.000000e+000 0.000000e+000
      outer loop
         vertex 5.468898e+001 0.000000e+000 -1.214369e+001
         vertex 5.543204e+001 0.000000e+000 -1.501538e+001
         vertex 5.579303e+001 0.000000e+000 -1.521516e+001
      endloop
   endfacet
   facet normal 0.000000e+000 -1.000000e+000 0.000000e+000
      outer loop
         vertex 5.238858e+001 0.000000e+000 -8.364304e+000
         vertex 4.973110e+001 0.000000e+000 -4.826873e+000
         vertex 5.342675e+001 0.000000e+000 -1.501139e+001
      endloop
   endfacet
   facet normal 0.000000e+000 -1.000000e+000 0.000000e+000
      outer loop
         vertex 5.342675e+001 0.000000e+000 -1.501139e+001
         vertex 4.973110e+001 0.000000e+000 -4.826873e+000
         vertex 4.674181e+001 0.000000e+000 -1.565014e+000
      endloop
   endfacet
   facet normal 0.000000e+000 -1.000000e+000 0.000000e+000
      outer loop
         vertex 5.342675e+001 0.000000e+000 -1.501139e+001
         vertex 4.674181e+001 0.000000e+000 -1.565014e+000
         vertex 5.306496e+001 0.000000e+000 -1.520973e+001
      endloop
   endfacet
   facet normal 0.000000e+000 -1.000000e+000 0.000000e+000
      outer loop
         vertex 5.306496e+001 0.000000e+000 -1.520973e+001
         vertex 4.674181e+001 0.000000e+000 -1.565014e+000
         vertex 4.344910e+001 0.000000e+000 1.390273e+000
      endloop
   endfacet
   facet normal 0.000000e+000 -1.000000e+000 0.000000e+000
      outer loop
         vertex 5.306496e+001 0.000000e+000 -1.520973e+001
         vertex 4.344910e+001 0.000000e+000 1.390273e+000
         vertex 3.988429e+001 0.000000e+000 4.010900e+000
      endloop
   endfacet
   facet normal 0.000000e+000 -1.000000e+000 0.000000e+000
      outer loop
         vertex 5.579303e+001 0.000000e+000 -1.521516e+001
         vertex 5.611558e+001 0.000000e+000 -1.547242e+001
         vertex 5.468898e+001 0.000000e+000 -1.214369e+001
      endloop
   endfacet
   facet normal 0.000000e+000 -1.000000e+000 0.000000e+000
      outer loop
         vertex 5.468898e+001 0.000000e+000 -1.214369e+001
         vertex 5.611558e+001 0.000000e+000 -1.547242e+001
         vertex 5.639063e+001 0.000000e+000 -1.577995e+001
      endloop
   endfacet
   facet normal 0.000000e+000 -1.000000e+000 0.000000e+000
      outer loop
         vertex 5.468898e+001 0.000000e+000 -1.214369e+001
         vertex 5.639063e+001 0.000000e+000 -1.577995e+001
         vertex 5.661044e+001 0.000000e+000 -1.612911e+001
      endloop
   endfacet
   facet normal 0.000000e+000 -1.000000e+000 0.000000e+000
      outer loop
         vertex 5.274139e+001 0.000000e+000 -1.546571e+001
         vertex 5.306496e+001 0.000000e+000 -1.520973e+001
         vertex 4.770391e+001 0.000000e+000 -9.281515e+000
      endloop
   endfacet
   facet normal 0.000000e+000 -1.000000e+000 0.000000e+000
      outer loop
         vertex 4.770391e+001 0.000000e+000 -9.281515e+000
         vertex 5.306496e+001 0.000000e+000 -1.520973e+001
         vertex 3.988429e+001 0.000000e+000 4.010900e+000
      endloop
   endfacet
   facet normal 0.000000e+000 -1.000000e+000 0.000000e+000
      outer loop
         vertex 4.770391e+001 0.000000e+000 -9.281515e+000
         vertex 3.988429e+001 0.000000e+000 4.010900e+000
         vertex 4.498312e+001 0.000000e+000 -6.045802e+000
      endloop
   endfacet
   facet normal 0.000000e+000 -1.000000e+000 0.000000e+000
      outer loop
         vertex 4.498312e+001 0.000000e+000 -6.045802e+000
         vertex 3.988429e+001 0.000000e+000 4.010900e+000
         vertex 4.194539e+001 0.000000e+000 -3.105600e+000
      endloop
   endfacet
   facet normal 0.000000e+000 -1.000000e+000 0.000000e+000
      outer loop
         vertex -5.343100e+001 0.000000e+000 1.156175e+001
         vertex -5.343100e+001 0.000000e+000 7.071750e+000
         vertex 1.481700e+001 0.000000e+000 1.156175e+001
      endloop
   endfacet
   facet normal 0.000000e+000 -1.000000e+000 0.000000e+000
      outer loop
         vertex 1.481700e+001 0.000000e+000 1.156175e+001
         vertex -5.343100e+001 0.000000e+000 7.071750e+000
         vertex 1.481700e+001 0.000000e+000 7.071750e+000
      endloop
   endfacet
   facet normal 0.000000e+000 -1.000000e+000 0.000000e+000
      outer loop
         vertex 1.481700e+001 0.000000e+000 1.156175e+001
         vertex 1.481700e+001 0.000000e+000 7.071750e+000
         vertex 1.923617e+001 0.000000e+000 1.134609e+001
      endloop
   endfacet
   facet normal 0.000000e+000 -1.000000e+000 0.000000e+000
      outer loop
         vertex 1.923617e+001 0.000000e+000 1.134609e+001
         vertex 1.481700e+001 0.000000e+000 7.071750e+000
         vertex 1.903904e+001 0.000000e+000 6.855086e+000
      endloop
   endfacet
   facet normal 0.000000e+000 -1.000000e+000 0.000000e+000
      outer loop
         vertex 1.923617e+001 0.000000e+000 1.134609e+001
         vertex 1.903904e+001 0.000000e+000 6.855086e+000
         vertex 2.361335e+001 0.000000e+000 1.070115e+001
      endloop
   endfacet
   facet normal 0.000000e+000 -1.000000e+000 0.000000e+000
      outer loop
         vertex 2.361335e+001 0.000000e+000 1.070115e+001
         vertex 1.903904e+001 0.000000e+000 6.855086e+000
         vertex 2.321672e+001 0.000000e+000 6.207371e+000
      endloop
   endfacet
   facet normal 0.000000e+000 -1.000000e+000 0.000000e+000
      outer loop
         vertex 2.361335e+001 0.000000e+000 1.070115e+001
         vertex 2.321672e+001 0.000000e+000 6.207371e+000
         vertex 2.790692e+001 0.000000e+000 9.633056e+000
      endloop
   endfacet
   facet normal 0.000000e+000 -1.000000e+000 0.000000e+000
      outer loop
         vertex 2.790692e+001 0.000000e+000 9.633056e+000
         vertex 2.321672e+001 0.000000e+000 6.207371e+000
         vertex 2.730616e+001 0.000000e+000 5.135409e+000
      endloop
   endfacet
   facet normal 0.000000e+000 -1.000000e+000 0.000000e+000
      outer loop
         vertex 2.790692e+001 0.000000e+000 9.633056e+000
         vertex 2.730616e+001 0.000000e+000 5.135409e+000
         vertex 3.207610e+001 0.000000e+000 8.151969e+000
      endloop
   endfacet
   facet normal 0.000000e+000 -1.000000e+000 0.000000e+000
      outer loop
         vertex 3.207610e+001 0.000000e+000 8.151969e+000
         vertex 2.730616e+001 0.000000e+000 5.135409e+000
         vertex 3.126438e+001 0.000000e+000 3.650463e+000
      endloop
   endfacet
   facet normal 0.000000e+000 -1.000000e+000 0.000000e+000
      outer loop
         vertex 3.207610e+001 0.000000e+000 8.151969e+000
         vertex 3.126438e+001 0.000000e+000 3.650463e+000
         vertex 3.608123e+001 0.000000e+000 6.271962e+000
      endloop
   endfacet
   facet normal 0.000000e+000 -1.000000e+000 0.000000e+000
      outer loop
         vertex 3.608123e+001 0.000000e+000 6.271962e+000
         vertex 3.126438e+001 0.000000e+000 3.650463e+000
         vertex 3.504980e+001 0.000000e+000 1.768135e+000
      endloop
   endfacet
   facet normal 0.000000e+000 -1.000000e+000 0.000000e+000
      outer loop
         vertex 3.608123e+001 0.000000e+000 6.271962e+000
         vertex 3.504980e+001 0.000000e+000 1.768135e+000
         vertex 3.988429e+001 0.000000e+000 4.010900e+000
      endloop
   endfacet
   facet normal 0.000000e+000 -1.000000e+000 0.000000e+000
      outer loop
         vertex 3.988429e+001 0.000000e+000 4.010900e+000
         vertex 3.504980e+001 0.000000e+000 1.768135e+000
         vertex 3.862265e+001 0.000000e+000 -4.918008e-001
      endloop
   endfacet
   facet normal 0.000000e+000 -1.000000e+000 0.000000e+000
      outer loop
         vertex 3.988429e+001 0.000000e+000 4.010900e+000
         vertex 3.862265e+001 0.000000e+000 -4.918008e-001
         vertex 4.194539e+001 0.000000e+000 -3.105600e+000
      endloop
   endfacet
endsolid