solid plade 2_Default_sldprt
   facet normal -1.000000e+000 0.000000e+000 0.000000e+000
      outer loop
         vertex -9.161710e+001 7.296447e+000 4.490000e+000
         vertex -9.161710e+001 3.461135e+001 4.490000e+000
         vertex -9.161710e+001 7.296447e+000 0.000000e+000
      endloop
   endfacet
   facet normal -1.000000e+000 0.000000e+000 0.000000e+000
      outer loop
         vertex -9.161710e+001 7.296447e+000 0.000000e+000
         vertex -9.161710e+001 3.461135e+001 4.490000e+000
         vertex -9.161710e+001 3.461135e+001 0.000000e+000
      endloop
   endfacet
   facet normal 4.843205e-001 -8.748907e-001 0.000000e+000
      outer loop
         vertex -9.161710e+001 7.296447e+000 4.490000e+000
         vertex -9.161710e+001 7.296447e+000 0.000000e+000
         vertex -8.679387e+001 9.874356e+000 -9.540979e-015
      endloop
   endfacet
   facet normal 4.545983e-001 -8.906966e-001 0.000000e+000
      outer loop
         vertex -9.161710e+001 7.296447e+000 4.490000e+000
         vertex -8.679387e+001 9.874356e+000 -9.540979e-015
         vertex -8.679387e+001 9.874356e+000 4.490000e+000
      endloop
   endfacet
   facet normal 3.908338e-001 -9.204612e-001 0.000000e+000
      outer loop
         vertex -8.679387e+001 9.874356e+000 4.490000e+000
         vertex -8.679387e+001 9.874356e+000 -9.540979e-015
         vertex -8.218835e+001 1.173665e+001 0.000000e+000
      endloop
   endfacet
   facet normal 3.566976e-001 -9.342199e-001 0.000000e+000
      outer loop
         vertex -8.679387e+001 9.874356e+000 4.490000e+000
         vertex -8.218835e+001 1.173665e+001 0.000000e+000
         vertex -8.218835e+001 1.173665e+001 4.490000e+000
      endloop
   endfacet
   facet normal 2.871024e-001 -9.578999e-001 0.000000e+000
      outer loop
         vertex -8.218835e+001 1.173665e+001 4.490000e+000
         vertex -8.218835e+001 1.173665e+001 0.000000e+000
         vertex -7.769443e+001 1.299412e+001 0.000000e+000
      endloop
   endfacet
   facet normal 2.516432e-001 -9.678201e-001 0.000000e+000
      outer loop
         vertex -8.218835e+001 1.173665e+001 4.490000e+000
         vertex -7.769443e+001 1.299412e+001 0.000000e+000
         vertex -7.769443e+001 1.299412e+001 4.490000e+000
      endloop
   endfacet
   facet normal 1.816024e-001 -9.833720e-001 0.000000e+000
      outer loop
         vertex -7.769443e+001 1.299412e+001 4.490000e+000
         vertex -7.769443e+001 1.299412e+001 0.000000e+000
         vertex -7.310645e+001 1.375458e+001 -8.673617e-016
      endloop
   endfacet
   facet normal 1.470485e-001 -9.891293e-001 0.000000e+000
      outer loop
         vertex -7.769443e+001 1.299412e+001 4.490000e+000
         vertex -7.310645e+001 1.375458e+001 -8.673617e-016
         vertex -7.310645e+001 1.375458e+001 4.490000e+000
      endloop
   endfacet
   facet normal 8.070344e-002 -9.967382e-001 0.000000e+000
      outer loop
         vertex -7.310645e+001 1.375458e+001 4.490000e+000
         vertex -7.310645e+001 1.375458e+001 -8.673617e-016
         vertex -6.824509e+001 1.406318e+001 0.000000e+000
      endloop
   endfacet
   facet normal 4.893615e-002 -9.988019e-001 0.000000e+000
      outer loop
         vertex -7.310645e+001 1.375458e+001 4.490000e+000
         vertex -6.824509e+001 1.406318e+001 0.000000e+000
         vertex -6.824509e+001 1.406318e+001 4.490000e+000
      endloop
   endfacet
   facet normal -1.056003e-002 -9.999442e-001 0.000000e+000
      outer loop
         vertex -6.824509e+001 1.406318e+001 4.490000e+000
         vertex -6.824509e+001 1.406318e+001 0.000000e+000
         vertex -6.292506e+001 1.392340e+001 0.000000e+000
      endloop
   endfacet
   facet normal -3.828472e-002 -9.992669e-001 0.000000e+000
      outer loop
         vertex -6.824509e+001 1.406318e+001 4.490000e+000
         vertex -6.292506e+001 1.392340e+001 0.000000e+000
         vertex -6.292506e+001 1.392340e+001 4.490000e+000
      endloop
   endfacet
   facet normal -8.904078e-002 -9.960279e-001 0.000000e+000
      outer loop
         vertex -6.292506e+001 1.392340e+001 4.490000e+000
         vertex -6.292506e+001 1.392340e+001 0.000000e+000
         vertex -5.692815e+001 1.330516e+001 0.000000e+000
      endloop
   endfacet
   facet normal -1.120875e-001 -9.936983e-001 0.000000e+000
      outer loop
         vertex -6.292506e+001 1.392340e+001 4.490000e+000
         vertex -5.692815e+001 1.330516e+001 0.000000e+000
         vertex -5.692815e+001 1.330516e+001 4.490000e+000
      endloop
   endfacet
   facet normal -1.532684e-001 -9.881846e-001 0.000000e+000
      outer loop
         vertex -5.692815e+001 1.330516e+001 4.490000e+000
         vertex -5.692815e+001 1.330516e+001 0.000000e+000
         vertex -4.996593e+001 1.214530e+001 0.000000e+000
      endloop
   endfacet
   facet normal -1.714294e-001 -9.851964e-001 0.000000e+000
      outer loop
         vertex -5.692815e+001 1.330516e+001 4.490000e+000
         vertex -4.996593e+001 1.214530e+001 0.000000e+000
         vertex -4.996593e+001 1.214530e+001 4.490000e+000
      endloop
   endfacet
   facet normal -2.047822e-001 -9.788076e-001 0.000000e+000
      outer loop
         vertex -4.996593e+001 1.214530e+001 4.490000e+000
         vertex -4.996593e+001 1.214530e+001 0.000000e+000
         vertex -3.974907e+001 9.894642e+000 0.000000e+000
      endloop
   endfacet
   facet normal -2.199924e-001 -9.755015e-001 0.000000e+000
      outer loop
         vertex -4.996593e+001 1.214530e+001 4.490000e+000
         vertex -3.974907e+001 9.894642e+000 0.000000e+000
         vertex -3.974907e+001 9.894642e+000 4.490000e+000
      endloop
   endfacet
   facet normal -2.428222e-001 -9.700708e-001 0.000000e+000
      outer loop
         vertex -3.974907e+001 9.894642e+000 4.490000e+000
         vertex -3.974907e+001 9.894642e+000 0.000000e+000
         vertex -2.422149e+001 5.882908e+000 0.000000e+000
      endloop
   endfacet
   facet normal -2.504841e-001 -9.681208e-001 0.000000e+000
      outer loop
         vertex -3.974907e+001 9.894642e+000 4.490000e+000
         vertex -2.422149e+001 5.882908e+000 0.000000e+000
         vertex -2.422149e+001 5.882908e+000 4.490000e+000
      endloop
   endfacet
   facet normal -2.534324e-001 -9.673531e-001 0.000000e+000
      outer loop
         vertex -2.422149e+001 5.882908e+000 4.490000e+000
         vertex -2.422149e+001 5.882908e+000 0.000000e+000
         vertex -5.574368e+000 9.855423e-001 0.000000e+000
      endloop
   endfacet
   facet normal -2.487288e-001 -9.685732e-001 0.000000e+000
      outer loop
         vertex -2.422149e+001 5.882908e+000 4.490000e+000
         vertex -5.574368e+000 9.855423e-001 0.000000e+000
         vertex -5.574368e+000 9.855423e-001 4.490000e+000
      endloop
   endfacet
   facet normal -2.344838e-001 -9.721200e-001 0.000000e+000
      outer loop
         vertex -5.574368e+000 9.855423e-001 4.490000e+000
         vertex -5.574368e+000 9.855423e-001 0.000000e+000
         vertex 7.444759e+000 -2.104119e+000 0.000000e+000
      endloop
   endfacet
   facet normal -2.249245e-001 -9.743763e-001 0.000000e+000
      outer loop
         vertex -5.574368e+000 9.855423e-001 4.490000e+000
         vertex 7.444759e+000 -2.104119e+000 0.000000e+000
         vertex 7.444759e+000 -2.104119e+000 4.490000e+000
      endloop
   endfacet
   facet normal -2.026819e-001 -9.792446e-001 0.000000e+000
      outer loop
         vertex 7.444759e+000 -2.104119e+000 4.490000e+000
         vertex 7.444759e+000 -2.104119e+000 0.000000e+000
         vertex 1.907105e+001 -4.444831e+000 0.000000e+000
      endloop
   endfacet
   facet normal -1.899832e-001 -9.817873e-001 0.000000e+000
      outer loop
         vertex 7.444759e+000 -2.104119e+000 4.490000e+000
         vertex 1.907105e+001 -4.444831e+000 0.000000e+000
         vertex 1.907105e+001 -4.444831e+000 4.490000e+000
      endloop
   endfacet
   facet normal -1.622610e-001 -9.867479e-001 0.000000e+000
      outer loop
         vertex 1.907105e+001 -4.444831e+000 4.490000e+000
         vertex 1.907105e+001 -4.444831e+000 0.000000e+000
         vertex 2.938390e+001 -6.070634e+000 0.000000e+000
      endloop
   endfacet
   facet normal -1.472262e-001 -9.891028e-001 0.000000e+000
      outer loop
         vertex 1.907105e+001 -4.444831e+000 4.490000e+000
         vertex 2.938390e+001 -6.070634e+000 0.000000e+000
         vertex 2.938390e+001 -6.070634e+000 4.490000e+000
      endloop
   endfacet
   facet normal -1.165027e-001 -9.931904e-001 0.000000e+000
      outer loop
         vertex 2.938390e+001 -6.070634e+000 4.490000e+000
         vertex 2.938390e+001 -6.070634e+000 0.000000e+000
         vertex 3.790892e+001 -7.009603e+000 0.000000e+000
      endloop
   endfacet
   facet normal -1.008118e-001 -9.949055e-001 0.000000e+000
      outer loop
         vertex 2.938390e+001 -6.070634e+000 4.490000e+000
         vertex 3.790892e+001 -7.009603e+000 0.000000e+000
         vertex 3.790892e+001 -7.009603e+000 4.490000e+000
      endloop
   endfacet
   facet normal -6.599099e-002 -9.978203e-001 0.000000e+000
      outer loop
         vertex 3.790892e+001 -7.009603e+000 4.490000e+000
         vertex 3.790892e+001 -7.009603e+000 0.000000e+000
         vertex 4.636431e+001 -7.495745e+000 0.000000e+000
      endloop
   endfacet
   facet normal -4.685099e-002 -9.989019e-001 0.000000e+000
      outer loop
         vertex 3.790892e+001 -7.009603e+000 4.490000e+000
         vertex 4.636431e+001 -7.495745e+000 0.000000e+000
         vertex 4.636431e+001 -7.495745e+000 4.490000e+000
      endloop
   endfacet
   facet normal -4.090507e-003 -9.999917e-001 0.000000e+000
      outer loop
         vertex 4.636431e+001 -7.495745e+000 4.490000e+000
         vertex 4.636431e+001 -7.495745e+000 0.000000e+000
         vertex 5.489426e+001 -7.439831e+000 0.000000e+000
      endloop
   endfacet
   facet normal 1.953525e-002 -9.998092e-001 0.000000e+000
      outer loop
         vertex 4.636431e+001 -7.495745e+000 4.490000e+000
         vertex 5.489426e+001 -7.439831e+000 0.000000e+000
         vertex 5.489426e+001 -7.439831e+000 4.490000e+000
      endloop
   endfacet
   facet normal 6.871735e-002 -9.976362e-001 0.000000e+000
      outer loop
         vertex 5.489426e+001 -7.439831e+000 4.490000e+000
         vertex 5.489426e+001 -7.439831e+000 0.000000e+000
         vertex 6.259652e+001 -6.818078e+000 0.000000e+000
      endloop
   endfacet
   facet normal 9.426942e-002 -9.955467e-001 0.000000e+000
      outer loop
         vertex 5.489426e+001 -7.439831e+000 4.490000e+000
         vertex 6.259652e+001 -6.818078e+000 0.000000e+000
         vertex 6.259652e+001 -6.818078e+000 4.490000e+000
      endloop
   endfacet
   facet normal 1.467455e-001 -9.891743e-001 0.000000e+000
      outer loop
         vertex 6.259652e+001 -6.818078e+000 4.490000e+000
         vertex 6.259652e+001 -6.818078e+000 0.000000e+000
         vertex 6.962028e+001 -5.684187e+000 0.000000e+000
      endloop
   endfacet
   facet normal 1.736592e-001 -9.848058e-001 0.000000e+000
      outer loop
         vertex 6.259652e+001 -6.818078e+000 4.490000e+000
         vertex 6.962028e+001 -5.684187e+000 0.000000e+000
         vertex 6.962028e+001 -5.684187e+000 4.490000e+000
      endloop
   endfacet
   facet normal 2.282363e-001 -9.736058e-001 0.000000e+000
      outer loop
         vertex 6.962028e+001 -5.684187e+000 4.490000e+000
         vertex 6.962028e+001 -5.684187e+000 0.000000e+000
         vertex 7.610053e+001 -4.071721e+000 0.000000e+000
      endloop
   endfacet
   facet normal 2.558860e-001 -9.667070e-001 0.000000e+000
      outer loop
         vertex 6.962028e+001 -5.684187e+000 4.490000e+000
         vertex 7.610053e+001 -4.071721e+000 0.000000e+000
         vertex 7.610053e+001 -4.071721e+000 4.490000e+000
      endloop
   endfacet
   facet normal 3.112694e-001 -9.503217e-001 0.000000e+000
      outer loop
         vertex 7.610053e+001 -4.071721e+000 4.490000e+000
         vertex 7.610053e+001 -4.071721e+000 0.000000e+000
         vertex 8.213103e+001 -2.001100e+000 0.000000e+000
      endloop
   endfacet
   facet normal 3.389898e-001 -9.407901e-001 0.000000e+000
      outer loop
         vertex 7.610053e+001 -4.071721e+000 4.490000e+000
         vertex 8.213103e+001 -2.001100e+000 0.000000e+000
         vertex 8.213103e+001 -2.001100e+000 4.490000e+000
      endloop
   endfacet
   facet normal 3.939871e-001 -9.191160e-001 0.000000e+000
      outer loop
         vertex 8.213103e+001 -2.001100e+000 4.490000e+000
         vertex 8.213103e+001 -2.001100e+000 0.000000e+000
         vertex 8.777359e+001 5.159087e-001 0.000000e+000
      endloop
   endfacet
   facet normal 4.212520e-001 -9.069436e-001 0.000000e+000
      outer loop
         vertex 8.213103e+001 -2.001100e+000 4.490000e+000
         vertex 8.777359e+001 5.159087e-001 0.000000e+000
         vertex 8.777359e+001 5.159087e-001 4.490000e+000
      endloop
   endfacet
   facet normal 4.721951e-001 -8.814940e-001 0.000000e+000
      outer loop
         vertex 8.777359e+001 5.159087e-001 4.490000e+000
         vertex 8.777359e+001 5.159087e-001 0.000000e+000
         vertex 9.251020e+001 3.135072e+000 0.000000e+000
      endloop
   endfacet
   facet normal 4.959426e-001 -8.683553e-001 0.000000e+000
      outer loop
         vertex 8.777359e+001 5.159087e-001 4.490000e+000
         vertex 9.251020e+001 3.135072e+000 0.000000e+000
         vertex 9.251020e+001 3.135072e+000 4.490000e+000
      endloop
   endfacet
   facet normal 5.456586e-001 -8.380076e-001 0.000000e+000
      outer loop
         vertex 9.251020e+001 3.135072e+000 4.490000e+000
         vertex 9.251020e+001 3.135072e+000 0.000000e+000
         vertex 9.744830e+001 6.458142e+000 0.000000e+000
      endloop
   endfacet
   facet normal 5.715054e-001 -8.205982e-001 0.000000e+000
      outer loop
         vertex 9.251020e+001 3.135072e+000 4.490000e+000
         vertex 9.744830e+001 6.458142e+000 0.000000e+000
         vertex 9.744830e+001 6.458142e+000 4.490000e+000
      endloop
   endfacet
   facet normal 6.226132e-001 -7.825297e-001 0.000000e+000
      outer loop
         vertex 9.744830e+001 6.458142e+000 4.490000e+000
         vertex 9.744830e+001 6.458142e+000 0.000000e+000
         vertex 1.019385e+002 1.014655e+001 0.000000e+000
      endloop
   endfacet
   facet normal 6.478181e-001 -7.617951e-001 0.000000e+000
      outer loop
         vertex 9.744830e+001 6.458142e+000 4.490000e+000
         vertex 1.019385e+002 1.014655e+001 0.000000e+000
         vertex 1.019385e+002 1.014655e+001 4.490000e+000
      endloop
   endfacet
   facet normal 6.977305e-001 -7.163603e-001 0.000000e+000
      outer loop
         vertex 1.019385e+002 1.014655e+001 4.490000e+000
         vertex 1.019385e+002 1.014655e+001 0.000000e+000
         vertex 1.058637e+002 1.409643e+001 0.000000e+000
      endloop
   endfacet
   facet normal 7.223334e-001 -6.915449e-001 0.000000e+000
      outer loop
         vertex 1.019385e+002 1.014655e+001 4.490000e+000
         vertex 1.058637e+002 1.409643e+001 0.000000e+000
         vertex 1.058637e+002 1.409643e+001 4.490000e+000
      endloop
   endfacet
   facet normal 7.700875e-001 -6.379384e-001 0.000000e+000
      outer loop
         vertex 1.058637e+002 1.409643e+001 4.490000e+000
         vertex 1.058637e+002 1.409643e+001 0.000000e+000
         vertex 1.090232e+002 1.804448e+001 -8.673617e-016
      endloop
   endfacet
   facet normal 7.931310e-001 -6.090512e-001 0.000000e+000
      outer loop
         vertex 1.058637e+002 1.409643e+001 4.490000e+000
         vertex 1.090232e+002 1.804448e+001 -8.673617e-016
         vertex 1.090232e+002 1.804448e+001 4.490000e+000
      endloop
   endfacet
   facet normal 8.362212e-001 -5.483924e-001 0.000000e+000
      outer loop
         vertex 1.090232e+002 1.804448e+001 4.490000e+000
         vertex 1.090232e+002 1.804448e+001 -8.673617e-016
         vertex 1.113307e+002 2.169819e+001 0.000000e+000
      endloop
   endfacet
   facet normal 8.562304e-001 -5.165942e-001 0.000000e+000
      outer loop
         vertex 1.090232e+002 1.804448e+001 4.490000e+000
         vertex 1.113307e+002 2.169819e+001 0.000000e+000
         vertex 1.113307e+002 2.169819e+001 4.490000e+000
      endloop
   endfacet
   facet normal 8.940932e-001 -4.478811e-001 0.000000e+000
      outer loop
         vertex 1.113307e+002 2.169819e+001 4.490000e+000
         vertex 1.113307e+002 2.169819e+001 0.000000e+000
         vertex 1.130376e+002 2.527157e+001 0.000000e+000
      endloop
   endfacet
   facet normal 9.117098e-001 -4.108349e-001 0.000000e+000
      outer loop
         vertex 1.113307e+002 2.169819e+001 4.490000e+000
         vertex 1.130376e+002 2.527157e+001 0.000000e+000
         vertex 1.130376e+002 2.527157e+001 4.490000e+000
      endloop
   endfacet
   facet normal 9.450729e-001 -3.268597e-001 0.000000e+000
      outer loop
         vertex 1.130376e+002 2.527157e+001 4.490000e+000
         vertex 1.130376e+002 2.527157e+001 0.000000e+000
         vertex 1.142722e+002 2.912354e+001 0.000000e+000
      endloop
   endfacet
   facet normal 9.601041e-001 -2.796430e-001 0.000000e+000
      outer loop
         vertex 1.130376e+002 2.527157e+001 4.490000e+000
         vertex 1.142722e+002 2.912354e+001 0.000000e+000
         vertex 1.142722e+002 2.912354e+001 4.490000e+000
      endloop
   endfacet
   facet normal 9.834958e-001 -1.809307e-001 0.000000e+000
      outer loop
         vertex 1.142722e+002 2.912354e+001 4.490000e+000
         vertex 1.142722e+002 2.912354e+001 0.000000e+000
         vertex 1.148592e+002 3.283103e+001 0.000000e+000
      endloop
   endfacet
   facet normal 9.915960e-001 -1.293732e-001 0.000000e+000
      outer loop
         vertex 1.142722e+002 2.912354e+001 4.490000e+000
         vertex 1.148592e+002 3.283103e+001 0.000000e+000
         vertex 1.148592e+002 3.283103e+001 4.490000e+000
      endloop
   endfacet
   facet normal 9.986590e-001 -5.177106e-002 0.000000e+000
      outer loop
         vertex 1.148592e+002 3.283103e+001 4.490000e+000
         vertex 1.148592e+002 3.283103e+001 0.000000e+000
         vertex 1.149285e+002 3.461135e+001 0.000000e+000
      endloop
   endfacet
   facet normal 9.996649e-001 -2.588553e-002 0.000000e+000
      outer loop
         vertex 1.148592e+002 3.283103e+001 4.490000e+000
         vertex 1.149285e+002 3.461135e+001 0.000000e+000
         vertex 1.149285e+002 3.461135e+001 4.490000e+000
      endloop
   endfacet
   facet normal 0.000000e+000 1.000000e+000 0.000000e+000
      outer loop
         vertex -9.161710e+001 3.461135e+001 4.490000e+000
         vertex 1.149285e+002 3.461135e+001 4.490000e+000
         vertex -9.161710e+001 3.461135e+001 0.000000e+000
      endloop
   endfacet
   facet normal 0.000000e+000 1.000000e+000 0.000000e+000
      outer loop
         vertex -9.161710e+001 3.461135e+001 0.000000e+000
         vertex 1.149285e+002 3.461135e+001 4.490000e+000
         vertex 1.149285e+002 3.461135e+001 0.000000e+000
      endloop
   endfacet
   facet normal 0.000000e+000 0.000000e+000 1.000000e+000
      outer loop
         vertex -9.161710e+001 7.296447e+000 4.490000e+000
         vertex -8.679387e+001 9.874356e+000 4.490000e+000
         vertex -9.161710e+001 3.461135e+001 4.490000e+000
      endloop
   endfacet
   facet normal 0.000000e+000 0.000000e+000 1.000000e+000
      outer loop
         vertex -9.161710e+001 3.461135e+001 4.490000e+000
         vertex -8.679387e+001 9.874356e+000 4.490000e+000
         vertex -8.218835e+001 1.173665e+001 4.490000e+000
      endloop
   endfacet
   facet normal 0.000000e+000 0.000000e+000 1.000000e+000
      outer loop
         vertex -9.161710e+001 3.461135e+001 4.490000e+000
         vertex -8.218835e+001 1.173665e+001 4.490000e+000
         vertex -7.769443e+001 1.299412e+001 4.490000e+000
      endloop
   endfacet
   facet normal 0.000000e+000 0.000000e+000 1.000000e+000
      outer loop
         vertex -7.769443e+001 1.299412e+001 4.490000e+000
         vertex -7.310645e+001 1.375458e+001 4.490000e+000
         vertex -9.161710e+001 3.461135e+001 4.490000e+000
      endloop
   endfacet
   facet normal 0.000000e+000 0.000000e+000 1.000000e+000
      outer loop
         vertex -9.161710e+001 3.461135e+001 4.490000e+000
         vertex -7.310645e+001 1.375458e+001 4.490000e+000
         vertex -6.824509e+001 1.406318e+001 4.490000e+000
      endloop
   endfacet
   facet normal 0.000000e+000 0.000000e+000 1.000000e+000
      outer loop
         vertex -9.161710e+001 3.461135e+001 4.490000e+000
         vertex -6.824509e+001 1.406318e+001 4.490000e+000
         vertex -6.292506e+001 1.392340e+001 4.490000e+000
      endloop
   endfacet
   facet normal 0.000000e+000 0.000000e+000 1.000000e+000
      outer loop
         vertex -6.292506e+001 1.392340e+001 4.490000e+000
         vertex -5.692815e+001 1.330516e+001 4.490000e+000
         vertex -9.161710e+001 3.461135e+001 4.490000e+000
      endloop
   endfacet
   facet normal 0.000000e+000 0.000000e+000 1.000000e+000
      outer loop
         vertex -9.161710e+001 3.461135e+001 4.490000e+000
         vertex -5.692815e+001 1.330516e+001 4.490000e+000
         vertex -4.996593e+001 1.214530e+001 4.490000e+000
      endloop
   endfacet
   facet normal 0.000000e+000 0.000000e+000 1.000000e+000
      outer loop
         vertex -9.161710e+001 3.461135e+001 4.490000e+000
         vertex -4.996593e+001 1.214530e+001 4.490000e+000
         vertex 1.149285e+002 3.461135e+001 4.490000e+000
      endloop
   endfacet
   facet normal 0.000000e+000 0.000000e+000 1.000000e+000
      outer loop
         vertex -4.996593e+001 1.214530e+001 4.490000e+000
         vertex -3.974907e+001 9.894642e+000 4.490000e+000
         vertex 1.149285e+002 3.461135e+001 4.490000e+000
      endloop
   endfacet
   facet normal 0.000000e+000 0.000000e+000 1.000000e+000
      outer loop
         vertex 1.149285e+002 3.461135e+001 4.490000e+000
         vertex -3.974907e+001 9.894642e+000 4.490000e+000
         vertex -2.422149e+001 5.882908e+000 4.490000e+000
      endloop
   endfacet
   facet normal 0.000000e+000 0.000000e+000 1.000000e+000
      outer loop
         vertex 1.149285e+002 3.461135e+001 4.490000e+000
         vertex -2.422149e+001 5.882908e+000 4.490000e+000
         vertex -5.574368e+000 9.855423e-001 4.490000e+000
      endloop
   endfacet
   facet normal 0.000000e+000 0.000000e+000 1.000000e+000
      outer loop
         vertex -5.574368e+000 9.855423e-001 4.490000e+000
         vertex 7.444759e+000 -2.104119e+000 4.490000e+000
         vertex 1.149285e+002 3.461135e+001 4.490000e+000
      endloop
   endfacet
   facet normal 0.000000e+000 0.000000e+000 1.000000e+000
      outer loop
         vertex 1.149285e+002 3.461135e+001 4.490000e+000
         vertex 7.444759e+000 -2.104119e+000 4.490000e+000
         vertex 1.907105e+001 -4.444831e+000 4.490000e+000
      endloop
   endfacet
   facet normal 0.000000e+000 0.000000e+000 1.000000e+000
      outer loop
         vertex 1.149285e+002 3.461135e+001 4.490000e+000
         vertex 1.907105e+001 -4.444831e+000 4.490000e+000
         vertex 2.938390e+001 -6.070634e+000 4.490000e+000
      endloop
   endfacet
   facet normal 0.000000e+000 0.000000e+000 1.000000e+000
      outer loop
         vertex 2.938390e+001 -6.070634e+000 4.490000e+000
         vertex 3.790892e+001 -7.009603e+000 4.490000e+000
         vertex 1.149285e+002 3.461135e+001 4.490000e+000
      endloop
   endfacet
   facet normal 0.000000e+000 0.000000e+000 1.000000e+000
      outer loop
         vertex 1.149285e+002 3.461135e+001 4.490000e+000
         vertex 3.790892e+001 -7.009603e+000 4.490000e+000
         vertex 4.636431e+001 -7.495745e+000 4.490000e+000
      endloop
   endfacet
   facet normal 0.000000e+000 0.000000e+000 1.000000e+000
      outer loop
         vertex 1.149285e+002 3.461135e+001 4.490000e+000
         vertex 4.636431e+001 -7.495745e+000 4.490000e+000
         vertex 5.489426e+001 -7.439831e+000 4.490000e+000
      endloop
   endfacet
   facet normal 0.000000e+000 0.000000e+000 1.000000e+000
      outer loop
         vertex 5.489426e+001 -7.439831e+000 4.490000e+000
         vertex 6.259652e+001 -6.818078e+000 4.490000e+000
         vertex 1.149285e+002 3.461135e+001 4.490000e+000
      endloop
   endfacet
   facet normal 0.000000e+000 0.000000e+000 1.000000e+000
      outer loop
         vertex 1.149285e+002 3.461135e+001 4.490000e+000
         vertex 6.259652e+001 -6.818078e+000 4.490000e+000
         vertex 6.962028e+001 -5.684187e+000 4.490000e+000
      endloop
   endfacet
   facet normal 0.000000e+000 0.000000e+000 1.000000e+000
      outer loop
         vertex 1.149285e+002 3.461135e+001 4.490000e+000
         vertex 6.962028e+001 -5.684187e+000 4.490000e+000
         vertex 7.610053e+001 -4.071721e+000 4.490000e+000
      endloop
   endfacet
   facet normal 0.000000e+000 0.000000e+000 1.000000e+000
      outer loop
         vertex 7.610053e+001 -4.071721e+000 4.490000e+000
         vertex 8.213103e+001 -2.001100e+000 4.490000e+000
         vertex 1.149285e+002 3.461135e+001 4.490000e+000
      endloop
   endfacet
   facet normal 0.000000e+000 0.000000e+000 1.000000e+000
      outer loop
         vertex 1.149285e+002 3.461135e+001 4.490000e+000
         vertex 8.213103e+001 -2.001100e+000 4.490000e+000
         vertex 8.777359e+001 5.159087e-001 4.490000e+000
      endloop
   endfacet
   facet normal 0.000000e+000 0.000000e+000 1.000000e+000
      outer loop
         vertex 1.149285e+002 3.461135e+001 4.490000e+000
         vertex 8.777359e+001 5.159087e-001 4.490000e+000
         vertex 9.251020e+001 3.135072e+000 4.490000e+000
      endloop
   endfacet
   facet normal 0.000000e+000 0.000000e+000 1.000000e+000
      outer loop
         vertex 9.251020e+001 3.135072e+000 4.490000e+000
         vertex 9.744830e+001 6.458142e+000 4.490000e+000
         vertex 1.149285e+002 3.461135e+001 4.490000e+000
      endloop
   endfacet
   facet normal 0.000000e+000 0.000000e+000 1.000000e+000
      outer loop
         vertex 1.149285e+002 3.461135e+001 4.490000e+000
         vertex 9.744830e+001 6.458142e+000 4.490000e+000
         vertex 1.019385e+002 1.014655e+001 4.490000e+000
      endloop
   endfacet
   facet normal 0.000000e+000 0.000000e+000 1.000000e+000
      outer loop
         vertex 1.149285e+002 3.461135e+001 4.490000e+000
         vertex 1.019385e+002 1.014655e+001 4.490000e+000
         vertex 1.058637e+002 1.409643e+001 4.490000e+000
      endloop
   endfacet
   facet normal 0.000000e+000 0.000000e+000 1.000000e+000
      outer loop
         vertex 1.058637e+002 1.409643e+001 4.490000e+000
         vertex 1.090232e+002 1.804448e+001 4.490000e+000
         vertex 1.149285e+002 3.461135e+001 4.490000e+000
      endloop
   endfacet
   facet normal 0.000000e+000 0.000000e+000 1.000000e+000
      outer loop
         vertex 1.149285e+002 3.461135e+001 4.490000e+000
         vertex 1.090232e+002 1.804448e+001 4.490000e+000
         vertex 1.113307e+002 2.169819e+001 4.490000e+000
      endloop
   endfacet
   facet normal 0.000000e+000 0.000000e+000 1.000000e+000
      outer loop
         vertex 1.149285e+002 3.461135e+001 4.490000e+000
         vertex 1.113307e+002 2.169819e+001 4.490000e+000
         vertex 1.148592e+002 3.283103e+001 4.490000e+000
      endloop
   endfacet
   facet normal 0.000000e+000 0.000000e+000 1.000000e+000
      outer loop
         vertex 1.148592e+002 3.283103e+001 4.490000e+000
         vertex 1.113307e+002 2.169819e+001 4.490000e+000
         vertex 1.130376e+002 2.527157e+001 4.490000e+000
      endloop
   endfacet
   facet normal 0.000000e+000 0.000000e+000 1.000000e+000
      outer loop
         vertex 1.148592e+002 3.283103e+001 4.490000e+000
         vertex 1.130376e+002 2.527157e+001 4.490000e+000
         vertex 1.142722e+002 2.912354e+001 4.490000e+000
      endloop
   endfacet
   facet normal 0.000000e+000 0.000000e+000 -1.000000e+000
      outer loop
         vertex -7.769443e+001 1.299412e+001 0.000000e+000
         vertex -8.218835e+001 1.173665e+001 0.000000e+000
         vertex -9.161710e+001 3.461135e+001 0.000000e+000
      endloop
   endfacet
   facet normal 0.000000e+000 0.000000e+000 -1.000000e+000
      outer loop
         vertex -9.161710e+001 3.461135e+001 0.000000e+000
         vertex -8.218835e+001 1.173665e+001 0.000000e+000
         vertex -8.679387e+001 9.874356e+000 0.000000e+000
      endloop
   endfacet
   facet normal 0.000000e+000 0.000000e+000 -1.000000e+000
      outer loop
         vertex -9.161710e+001 3.461135e+001 0.000000e+000
         vertex -8.679387e+001 9.874356e+000 0.000000e+000
         vertex -9.161710e+001 7.296447e+000 0.000000e+000
      endloop
   endfacet
   facet normal 0.000000e+000 0.000000e+000 -1.000000e+000
      outer loop
         vertex -6.292506e+001 1.392340e+001 0.000000e+000
         vertex -6.824509e+001 1.406318e+001 0.000000e+000
         vertex -9.161710e+001 3.461135e+001 0.000000e+000
      endloop
   endfacet
   facet normal 0.000000e+000 0.000000e+000 -1.000000e+000
      outer loop
         vertex -9.161710e+001 3.461135e+001 0.000000e+000
         vertex -6.824509e+001 1.406318e+001 0.000000e+000
         vertex -7.310645e+001 1.375458e+001 0.000000e+000
      endloop
   endfacet
   facet normal 0.000000e+000 0.000000e+000 -1.000000e+000
      outer loop
         vertex -9.161710e+001 3.461135e+001 0.000000e+000
         vertex -7.310645e+001 1.375458e+001 0.000000e+000
         vertex -7.769443e+001 1.299412e+001 0.000000e+000
      endloop
   endfacet
   facet normal 0.000000e+000 0.000000e+000 -1.000000e+000
      outer loop
         vertex -2.422149e+001 5.882908e+000 0.000000e+000
         vertex -3.974907e+001 9.894642e+000 0.000000e+000
         vertex 1.149285e+002 3.461135e+001 0.000000e+000
      endloop
   endfacet
   facet normal 0.000000e+000 0.000000e+000 -1.000000e+000
      outer loop
         vertex 1.149285e+002 3.461135e+001 0.000000e+000
         vertex -3.974907e+001 9.894642e+000 0.000000e+000
         vertex -4.996593e+001 1.214530e+001 0.000000e+000
      endloop
   endfacet
   facet normal 0.000000e+000 0.000000e+000 -1.000000e+000
      outer loop
         vertex 1.149285e+002 3.461135e+001 0.000000e+000
         vertex -4.996593e+001 1.214530e+001 0.000000e+000
         vertex -9.161710e+001 3.461135e+001 0.000000e+000
      endloop
   endfacet
   facet normal 0.000000e+000 0.000000e+000 -1.000000e+000
      outer loop
         vertex -9.161710e+001 3.461135e+001 0.000000e+000
         vertex -4.996593e+001 1.214530e+001 0.000000e+000
         vertex -5.692815e+001 1.330516e+001 0.000000e+000
      endloop
   endfacet
   facet normal 0.000000e+000 0.000000e+000 -1.000000e+000
      outer loop
         vertex -9.161710e+001 3.461135e+001 0.000000e+000
         vertex -5.692815e+001 1.330516e+001 0.000000e+000
         vertex -6.292506e+001 1.392340e+001 0.000000e+000
      endloop
   endfacet
   facet normal 0.000000e+000 0.000000e+000 -1.000000e+000
      outer loop
         vertex 1.907105e+001 -4.444831e+000 0.000000e+000
         vertex 7.444759e+000 -2.104119e+000 0.000000e+000
         vertex 1.149285e+002 3.461135e+001 0.000000e+000
      endloop
   endfacet
   facet normal 0.000000e+000 0.000000e+000 -1.000000e+000
      outer loop
         vertex 1.149285e+002 3.461135e+001 0.000000e+000
         vertex 7.444759e+000 -2.104119e+000 0.000000e+000
         vertex -5.574368e+000 9.855423e-001 0.000000e+000
      endloop
   endfacet
   facet normal 0.000000e+000 0.000000e+000 -1.000000e+000
      outer loop
         vertex 1.149285e+002 3.461135e+001 0.000000e+000
         vertex -5.574368e+000 9.855423e-001 0.000000e+000
         vertex -2.422149e+001 5.882908e+000 0.000000e+000
      endloop
   endfacet
   facet normal 0.000000e+000 0.000000e+000 -1.000000e+000
      outer loop
         vertex 4.636431e+001 -7.495745e+000 0.000000e+000
         vertex 3.790892e+001 -7.009603e+000 0.000000e+000
         vertex 1.149285e+002 3.461135e+001 0.000000e+000
      endloop
   endfacet
   facet normal 0.000000e+000 0.000000e+000 -1.000000e+000
      outer loop
         vertex 1.149285e+002 3.461135e+001 0.000000e+000
         vertex 3.790892e+001 -7.009603e+000 0.000000e+000
         vertex 2.938390e+001 -6.070634e+000 0.000000e+000
      endloop
   endfacet
   facet normal 0.000000e+000 0.000000e+000 -1.000000e+000
      outer loop
         vertex 1.149285e+002 3.461135e+001 0.000000e+000
         vertex 2.938390e+001 -6.070634e+000 0.000000e+000
         vertex 1.907105e+001 -4.444831e+000 0.000000e+000
      endloop
   endfacet
   facet normal 0.000000e+000 0.000000e+000 -1.000000e+000
      outer loop
         vertex 6.962028e+001 -5.684187e+000 0.000000e+000
         vertex 6.259652e+001 -6.818078e+000 0.000000e+000
         vertex 1.149285e+002 3.461135e+001 0.000000e+000
      endloop
   endfacet
   facet normal 0.000000e+000 0.000000e+000 -1.000000e+000
      outer loop
         vertex 1.149285e+002 3.461135e+001 0.000000e+000
         vertex 6.259652e+001 -6.818078e+000 0.000000e+000
         vertex 5.489426e+001 -7.439831e+000 0.000000e+000
      endloop
   endfacet
   facet normal 0.000000e+000 0.000000e+000 -1.000000e+000
      outer loop
         vertex 1.149285e+002 3.461135e+001 0.000000e+000
         vertex 5.489426e+001 -7.439831e+000 0.000000e+000
         vertex 4.636431e+001 -7.495745e+000 0.000000e+000
      endloop
   endfacet
   facet normal 0.000000e+000 0.000000e+000 -1.000000e+000
      outer loop
         vertex 9.251020e+001 3.135072e+000 0.000000e+000
         vertex 8.777359e+001 5.159087e-001 0.000000e+000
         vertex 1.149285e+002 3.461135e+001 0.000000e+000
      endloop
   endfacet
   facet normal 0.000000e+000 0.000000e+000 -1.000000e+000
      outer loop
         vertex 8.777359e+001 5.159087e-001 0.000000e+000
         vertex 8.213103e+001 -2.001100e+000 0.000000e+000
         vertex 1.149285e+002 3.461135e+001 0.000000e+000
      endloop
   endfacet
   facet normal 0.000000e+000 0.000000e+000 -1.000000e+000
      outer loop
         vertex 1.149285e+002 3.461135e+001 0.000000e+000
         vertex 8.213103e+001 -2.001100e+000 0.000000e+000
         vertex 7.610053e+001 -4.071721e+000 0.000000e+000
      endloop
   endfacet
   facet normal 0.000000e+000 0.000000e+000 -1.000000e+000
      outer loop
         vertex 1.149285e+002 3.461135e+001 0.000000e+000
         vertex 7.610053e+001 -4.071721e+000 0.000000e+000
         vertex 6.962028e+001 -5.684187e+000 0.000000e+000
      endloop
   endfacet
   facet normal 0.000000e+000 0.000000e+000 -1.000000e+000
      outer loop
         vertex 1.058637e+002 1.409643e+001 0.000000e+000
         vertex 1.019385e+002 1.014655e+001 0.000000e+000
         vertex 1.149285e+002 3.461135e+001 0.000000e+000
      endloop
   endfacet
   facet normal 0.000000e+000 0.000000e+000 -1.000000e+000
      outer loop
         vertex 1.149285e+002 3.461135e+001 0.000000e+000
         vertex 1.019385e+002 1.014655e+001 0.000000e+000
         vertex 9.744830e+001 6.458142e+000 0.000000e+000
      endloop
   endfacet
   facet normal 0.000000e+000 0.000000e+000 -1.000000e+000
      outer loop
         vertex 1.149285e+002 3.461135e+001 0.000000e+000
         vertex 9.744830e+001 6.458142e+000 0.000000e+000
         vertex 9.251020e+001 3.135072e+000 0.000000e+000
      endloop
   endfacet
   facet normal 0.000000e+000 0.000000e+000 -1.000000e+000
      outer loop
         vertex 1.142722e+002 2.912354e+001 0.000000e+000
         vertex 1.130376e+002 2.527157e+001 0.000000e+000
         vertex 1.148592e+002 3.283103e+001 0.000000e+000
      endloop
   endfacet
   facet normal 0.000000e+000 0.000000e+000 -1.000000e+000
      outer loop
         vertex 1.148592e+002 3.283103e+001 0.000000e+000
         vertex 1.130376e+002 2.527157e+001 0.000000e+000
         vertex 1.113307e+002 2.169819e+001 0.000000e+000
      endloop
   endfacet
   facet normal 0.000000e+000 0.000000e+000 -1.000000e+000
      outer loop
         vertex 1.148592e+002 3.283103e+001 0.000000e+000
         vertex 1.113307e+002 2.169819e+001 0.000000e+000
         vertex 1.149285e+002 3.461135e+001 0.000000e+000
      endloop
   endfacet
   facet normal 0.000000e+000 0.000000e+000 -1.000000e+000
      outer loop
         vertex 1.149285e+002 3.461135e+001 0.000000e+000
         vertex 1.113307e+002 2.169819e+001 0.000000e+000
         vertex 1.090232e+002 1.804448e+001 0.000000e+000
      endloop
   endfacet
   facet normal 0.000000e+000 0.000000e+000 -1.000000e+000
      outer loop
         vertex 1.149285e+002 3.461135e+001 0.000000e+000
         vertex 1.090232e+002 1.804448e+001 0.000000e+000
         vertex 1.058637e+002 1.409643e+001 0.000000e+000
      endloop
   endfacet
endsolid